# xmcd CD database file
#
# Track frame offsets:
#	182
#	42230
#	114887
#	169485
#
# Disc length: 2903 seconds
#
# Revision: 1
# Processed by: cddbd v1.4PL0 Copyright (c) Steve Scherf et al.
# Submitted via: CDex 1.50
#
DISCID=2c0b5504
DTITLE=Dexter Gordon - Backstairs Cd2
DYEAR=1981
DGENRE=Jazz
TTITLE0=It's You Or No One
TTITLE1=Tanya
TTITLE2=As Time Goes By
TTITLE3=Jumpin' Blues
EXTD=YEAR: 1981
EXTT0=
EXTT1=
EXTT2=
EXTT3=
PLAYORDER=
